<svg width="140" height="156" viewBox="0 0 140 156" fill="none" xmlns="http://www.w3.org/2000/svg">
<mask id="mask0_182_595" style="mask-type:alpha" maskUnits="userSpaceOnUse" x="0" y="0" width="140" height="156">
<path d="M128.676 156H11.3235C5.06972 156 0 151.011 0 144.857V11.1429C0 4.98883 5.06972 0 11.3235 0H87.5L140 51.6623V144.857C140 151.011 134.93 156 128.676 156Z" fill="url(#paint0_linear_182_595)"/>
</mask>
<g mask="url(#mask0_182_595)">
<path d="M128.676 156H11.3235C5.06972 156 0 151.011 0 144.857V11.1429C0 4.98883 5.06972 0 11.3235 0H87.5L140 51.6623V144.857C140 151.011 134.93 156 128.676 156Z" fill="url(#paint1_linear_182_595)"/>
<g opacity="0.82" filter="url(#filter0_f_182_595)">
<rect x="24.7061" y="75.4675" width="91.6176" height="42.5455" fill="#0F7D56" fill-opacity="0.27" style="mix-blend-mode:darken"/>
</g>
<g filter="url(#filter1_d_182_595)">
<path d="M140 51.6623H109.5C97.3497 51.6623 87.5 41.8126 87.5 29.6623V0L140 51.6623Z" fill="#8EC5FF"/>
</g>
<path d="M54.9158 104.307H50.1345C49.9981 103.523 49.7467 102.828 49.3802 102.223C49.0138 101.61 48.5578 101.09 48.0123 100.664C47.4669 100.238 46.8447 99.9179 46.1459 99.7049C45.4555 99.4833 44.7098 99.3725 43.9086 99.3725C42.4854 99.3725 41.224 99.7304 40.1246 100.446C39.0251 101.154 38.1643 102.194 37.5422 103.566C36.92 104.929 36.6089 106.595 36.6089 108.564C36.6089 110.567 36.92 112.255 37.5422 113.627C38.1729 114.99 39.0336 116.022 40.1246 116.72C41.224 117.411 42.4811 117.756 43.8959 117.756C44.68 117.756 45.4129 117.654 46.0947 117.449C46.7851 117.236 47.403 116.925 47.9484 116.516C48.5024 116.107 48.9669 115.604 49.3419 115.007C49.7254 114.411 49.9896 113.729 50.1345 112.962L54.9158 112.988C54.7368 114.232 54.349 115.399 53.7524 116.49C53.1643 117.581 52.393 118.544 51.4385 119.38C50.4839 120.206 49.3675 120.854 48.089 121.323C46.8106 121.783 45.3916 122.013 43.8319 122.013C41.5308 122.013 39.4768 121.48 37.67 120.415C35.8632 119.35 34.4399 117.811 33.4001 115.8C32.3604 113.789 31.8405 111.377 31.8405 108.564C31.8405 105.743 32.3646 103.331 33.4129 101.328C34.4612 99.3171 35.8888 97.7787 37.6956 96.7134C39.5024 95.648 41.5479 95.1154 43.8319 95.1154C45.2893 95.1154 46.6444 95.3199 47.8973 95.729C49.1501 96.1381 50.2666 96.739 51.2467 97.5316C52.2268 98.3157 53.0322 99.2787 53.6629 100.421C54.3021 101.554 54.7197 102.85 54.9158 104.307ZM72.4078 102.671C72.2885 101.554 71.7857 100.685 70.8993 100.063C70.0215 99.4407 68.8794 99.1296 67.4732 99.1296C66.4845 99.1296 65.6365 99.2787 64.9291 99.577C64.2218 99.8753 63.6806 100.28 63.3056 100.792C62.9306 101.303 62.7388 101.887 62.7303 102.543C62.7303 103.088 62.8539 103.561 63.101 103.962C63.3567 104.363 63.7019 104.703 64.1365 104.985C64.5712 105.257 65.0527 105.488 65.5811 105.675C66.1095 105.863 66.6422 106.02 67.1791 106.148L69.6337 106.762C70.6223 106.992 71.5726 107.303 72.4845 107.695C73.405 108.087 74.2274 108.581 74.9519 109.178C75.6848 109.774 76.2644 110.495 76.6905 111.338C77.1166 112.182 77.3297 113.171 77.3297 114.304C77.3297 115.838 76.9377 117.189 76.1536 118.357C75.3695 119.516 74.236 120.424 72.753 121.08C71.2786 121.728 69.4931 122.051 67.3965 122.051C65.3595 122.051 63.5911 121.736 62.0911 121.105C60.5996 120.475 59.432 119.554 58.5882 118.344C57.753 117.134 57.3013 115.659 57.2331 113.921H61.8993C61.9675 114.833 62.2487 115.591 62.7431 116.196C63.2374 116.801 63.8808 117.253 64.6735 117.551C65.4746 117.85 66.3695 117.999 67.3581 117.999C68.3894 117.999 69.2928 117.845 70.0683 117.539C70.8524 117.223 71.4661 116.789 71.9093 116.235C72.3524 115.672 72.5783 115.016 72.5868 114.266C72.5783 113.584 72.378 113.022 71.986 112.578C71.5939 112.127 71.0442 111.752 70.3368 111.453C69.638 111.147 68.8198 110.874 67.8823 110.635L64.9036 109.868C62.7473 109.314 61.0428 108.475 59.7899 107.35C58.5456 106.216 57.9235 104.712 57.9235 102.837C57.9235 101.294 58.3411 99.9435 59.1763 98.7844C60.0201 97.6253 61.1664 96.7262 62.6152 96.087C64.0641 95.4392 65.7047 95.1154 67.5371 95.1154C69.3951 95.1154 71.0229 95.4392 72.4206 96.087C73.8269 96.7262 74.9306 97.6168 75.7317 98.7588C76.5328 99.8924 76.9462 101.196 76.9718 102.671H72.4078ZM83.9809 95.4733L90.7948 116.081H91.0633L97.8644 95.4733H103.08L93.8502 121.655H87.9951L78.7778 95.4733H83.9809Z" fill="white"/>
</g>
<defs>
<filter id="filter0_f_182_595" x="-14.2939" y="36.4675" width="169.618" height="120.545" filterUnits="userSpaceOnUse" color-interpolation-filters="sRGB">
<feFlood flood-opacity="0" result="BackgroundImageFix"/>
<feBlend mode="normal" in="SourceGraphic" in2="BackgroundImageFix" result="shape"/>
<feGaussianBlur stdDeviation="19.5" result="effect1_foregroundBlur_182_595"/>
</filter>
<filter id="filter1_d_182_595" x="64.5" y="-24" width="102.5" height="101.662" filterUnits="userSpaceOnUse" color-interpolation-filters="sRGB">
<feFlood flood-opacity="0" result="BackgroundImageFix"/>
<feColorMatrix in="SourceAlpha" type="matrix" values="0 0 0 0 0 0 0 0 0 0 0 0 0 0 0 0 0 0 127 0" result="hardAlpha"/>
<feOffset dx="2" dy="1"/>
<feGaussianBlur stdDeviation="12.5"/>
<feColorMatrix type="matrix" values="0 0 0 0 0 0 0 0 0 0 0 0 0 0 0 0 0 0 0.33 0"/>
<feBlend mode="normal" in2="BackgroundImageFix" result="effect1_dropShadow_182_595"/>
<feBlend mode="normal" in="SourceGraphic" in2="effect1_dropShadow_182_595" result="shape"/>
</filter>
<linearGradient id="paint0_linear_182_595" x1="70" y1="0" x2="70" y2="156" gradientUnits="userSpaceOnUse">
<stop stop-color="#FF7979"/>
<stop offset="1" stop-color="#E85555"/>
</linearGradient>
<linearGradient id="paint1_linear_182_595" x1="70" y1="0" x2="70" y2="156" gradientUnits="userSpaceOnUse">
<stop offset="0.000265127" stop-color="#9EA6DD"/>
<stop offset="1" stop-color="#5350A8"/>
</linearGradient>
</defs>
</svg>
