<svg width="140" height="156" viewBox="0 0 140 156" fill="none" xmlns="http://www.w3.org/2000/svg">
<mask id="mask0_182_631" style="mask-type:alpha" maskUnits="userSpaceOnUse" x="0" y="0" width="140" height="156">
<path d="M128.676 156H11.3235C5.06972 156 0 151.011 0 144.857V11.1429C0 4.98883 5.06972 0 11.3235 0H87.5L140 51.6623V144.857C140 151.011 134.93 156 128.676 156Z" fill="url(#paint0_linear_182_631)"/>
</mask>
<g mask="url(#mask0_182_631)">
<path d="M128.676 156H11.3235C5.06972 156 0 151.011 0 144.857V11.1429C0 4.98883 5.06972 0 11.3235 0H87.5L140 51.6623V144.857C140 151.011 134.93 156 128.676 156Z" fill="url(#paint1_linear_182_631)"/>
<g opacity="0.82" filter="url(#filter0_f_182_631)">
<rect x="24.7061" y="75.4675" width="91.6176" height="42.5455" fill="#0F7D56" fill-opacity="0.27" style="mix-blend-mode:darken"/>
</g>
<g filter="url(#filter1_d_182_631)">
<path d="M140 51.6623H109.5C97.3497 51.6623 87.5 41.8126 87.5 29.6623V0L140 51.6623Z" fill="url(#paint2_linear_182_631)"/>
</g>
<path d="M56.9929 103.652H52.2116C52.0753 102.868 51.8239 102.173 51.4574 101.568C51.0909 100.955 50.6349 100.435 50.0895 100.009C49.544 99.5824 48.9219 99.2628 48.223 99.0497C47.5327 98.8281 46.7869 98.7173 45.9858 98.7173C44.5625 98.7173 43.3011 99.0753 42.2017 99.7912C41.1023 100.499 40.2415 101.538 39.6193 102.911C38.9972 104.274 38.6861 105.94 38.6861 107.909C38.6861 109.912 38.9972 111.599 39.6193 112.972C40.25 114.335 41.1108 115.366 42.2017 116.065C43.3011 116.756 44.5582 117.101 45.973 117.101C46.7571 117.101 47.4901 116.999 48.1719 116.794C48.8622 116.581 49.4801 116.27 50.0256 115.861C50.5795 115.452 51.044 114.949 51.419 114.352C51.8026 113.756 52.0668 113.074 52.2116 112.307L56.9929 112.332C56.8139 113.577 56.4261 114.744 55.8295 115.835C55.2415 116.926 54.4702 117.889 53.5156 118.724C52.5611 119.551 51.4446 120.199 50.1662 120.668C48.8878 121.128 47.4688 121.358 45.9091 121.358C43.608 121.358 41.554 120.825 39.7472 119.76C37.9403 118.695 36.517 117.156 35.4773 115.145C34.4375 113.134 33.9176 110.722 33.9176 107.909C33.9176 105.088 34.4418 102.676 35.4901 100.673C36.5384 98.6619 37.9659 97.1236 39.7727 96.0582C41.5795 94.9929 43.625 94.4602 45.9091 94.4602C47.3665 94.4602 48.7216 94.6648 49.9744 95.0739C51.2273 95.483 52.3438 96.0838 53.3239 96.8764C54.304 97.6605 55.1094 98.6236 55.7401 99.7656C56.3793 100.899 56.7969 102.195 56.9929 103.652ZM74.485 102.016C74.3657 100.899 73.8628 100.03 72.9765 99.4077C72.0986 98.7855 70.9566 98.4744 69.5503 98.4744C68.5617 98.4744 67.7137 98.6236 67.0063 98.9219C66.2989 99.2202 65.7577 99.625 65.3827 100.136C65.0077 100.648 64.816 101.232 64.8074 101.888C64.8074 102.433 64.931 102.906 65.1782 103.307C65.4338 103.707 65.779 104.048 66.2137 104.33C66.6483 104.602 67.1299 104.832 67.6583 105.02C68.1867 105.207 68.7194 105.365 69.2563 105.493L71.7108 106.107C72.6995 106.337 73.6498 106.648 74.5617 107.04C75.4821 107.432 76.3046 107.926 77.029 108.523C77.762 109.119 78.3415 109.839 78.7677 110.683C79.1938 111.527 79.4069 112.516 79.4069 113.649C79.4069 115.183 79.0148 116.534 78.2307 117.702C77.4466 118.861 76.3131 119.768 74.8302 120.425C73.3557 121.072 71.5702 121.396 69.4736 121.396C67.4367 121.396 65.6682 121.081 64.1682 120.45C62.6767 119.82 61.5091 118.899 60.6654 117.689C59.8302 116.479 59.3785 115.004 59.3103 113.266H63.9765C64.0446 114.178 64.3259 114.936 64.8202 115.541C65.3145 116.146 65.958 116.598 66.7506 116.896C67.5517 117.195 68.4466 117.344 69.4353 117.344C70.4665 117.344 71.3699 117.19 72.1455 116.884C72.9296 116.568 73.5432 116.134 73.9864 115.58C74.4296 115.017 74.6554 114.361 74.664 113.611C74.6554 112.929 74.4552 112.366 74.0631 111.923C73.6711 111.472 73.1213 111.097 72.414 110.798C71.7151 110.491 70.8969 110.219 69.9594 109.98L66.9807 109.213C64.8245 108.659 63.1199 107.82 61.8671 106.695C60.6228 105.561 60.0006 104.057 60.0006 102.182C60.0006 100.639 60.4182 99.2884 61.2535 98.1293C62.0972 96.9702 63.2435 96.071 64.6924 95.4318C66.1412 94.7841 67.7819 94.4602 69.6142 94.4602C71.4722 94.4602 73.1 94.7841 74.4978 95.4318C75.904 96.071 77.0077 96.9616 77.8089 98.1037C78.61 99.2372 79.0233 100.541 79.0489 102.016H74.485ZM86.058 94.8182L92.872 115.426H93.1404L99.9416 94.8182H105.157L95.9274 121H90.0722L80.8549 94.8182H86.058Z" fill="white"/>
</g>
<defs>
<filter id="filter0_f_182_631" x="-14.2939" y="36.4675" width="169.618" height="120.545" filterUnits="userSpaceOnUse" color-interpolation-filters="sRGB">
<feFlood flood-opacity="0" result="BackgroundImageFix"/>
<feBlend mode="normal" in="SourceGraphic" in2="BackgroundImageFix" result="shape"/>
<feGaussianBlur stdDeviation="19.5" result="effect1_foregroundBlur_182_631"/>
</filter>
<filter id="filter1_d_182_631" x="64.5" y="-24" width="102.5" height="101.662" filterUnits="userSpaceOnUse" color-interpolation-filters="sRGB">
<feFlood flood-opacity="0" result="BackgroundImageFix"/>
<feColorMatrix in="SourceAlpha" type="matrix" values="0 0 0 0 0 0 0 0 0 0 0 0 0 0 0 0 0 0 127 0" result="hardAlpha"/>
<feOffset dx="2" dy="1"/>
<feGaussianBlur stdDeviation="12.5"/>
<feColorMatrix type="matrix" values="0 0 0 0 0 0 0 0 0 0 0 0 0 0 0 0 0 0 0.33 0"/>
<feBlend mode="normal" in2="BackgroundImageFix" result="effect1_dropShadow_182_631"/>
<feBlend mode="normal" in="SourceGraphic" in2="effect1_dropShadow_182_631" result="shape"/>
</filter>
<linearGradient id="paint0_linear_182_631" x1="70" y1="0" x2="70" y2="156" gradientUnits="userSpaceOnUse">
<stop stop-color="#FF7979"/>
<stop offset="1" stop-color="#E85555"/>
</linearGradient>
<linearGradient id="paint1_linear_182_631" x1="70" y1="0" x2="70" y2="156" gradientUnits="userSpaceOnUse">
<stop offset="0.000265127" stop-color="#83CC70"/>
<stop offset="1" stop-color="#61A850"/>
</linearGradient>
<linearGradient id="paint2_linear_182_631" x1="113.75" y1="0" x2="113.75" y2="51.6623" gradientUnits="userSpaceOnUse">
<stop stop-color="#3FAF43"/>
<stop offset="1" stop-color="#0E8312"/>
</linearGradient>
</defs>
</svg>
