<svg width="140" height="156" viewBox="0 0 140 156" fill="none" xmlns="http://www.w3.org/2000/svg">
<mask id="mask0_182_574" style="mask-type:alpha" maskUnits="userSpaceOnUse" x="0" y="0" width="140" height="156">
<path d="M128.676 156H11.3235C5.06972 156 0 151.011 0 144.857V11.1429C0 4.98883 5.06972 0 11.3235 0H87.5L140 51.6623V144.857C140 151.011 134.93 156 128.676 156Z" fill="url(#paint0_linear_182_574)"/>
</mask>
<g mask="url(#mask0_182_574)">
<path d="M128.676 156H11.3235C5.06972 156 0 151.011 0 144.857V11.1429C0 4.98883 5.06972 0 11.3235 0H87.5L140 51.6623V144.857C140 151.011 134.93 156 128.676 156Z" fill="url(#paint1_linear_182_574)"/>
<g opacity="0.82" filter="url(#filter0_f_182_574)">
<rect x="24.7061" y="75.4675" width="91.6176" height="42.5455" fill="#0F7D56" fill-opacity="0.27" style="mix-blend-mode:darken"/>
</g>
<g filter="url(#filter1_d_182_574)">
<path d="M140 51.6623H109.5C97.3497 51.6623 87.5 41.8126 87.5 29.6623V0L140 51.6623Z" fill="#E7000B"/>
</g>
<path d="M55.9158 102.307H51.1345C50.9981 101.523 50.7467 100.828 50.3802 100.223C50.0138 99.6097 49.5578 99.0898 49.0123 98.6637C48.4669 98.2375 47.8447 97.9179 47.1459 97.7049C46.4555 97.4833 45.7098 97.3725 44.9086 97.3725C43.4854 97.3725 42.224 97.7304 41.1246 98.4463C40.0251 99.1537 39.1643 100.194 38.5422 101.566C37.92 102.929 37.6089 104.595 37.6089 106.564C37.6089 108.567 37.92 110.255 38.5422 111.627C39.1729 112.99 40.0336 114.022 41.1246 114.72C42.224 115.411 43.4811 115.756 44.8959 115.756C45.68 115.756 46.4129 115.654 47.0947 115.449C47.7851 115.236 48.403 114.925 48.9484 114.516C49.5024 114.107 49.9669 113.604 50.3419 113.007C50.7254 112.411 50.9896 111.729 51.1345 110.962L55.9158 110.988C55.7368 112.232 55.349 113.399 54.7524 114.49C54.1643 115.581 53.393 116.544 52.4385 117.38C51.4839 118.206 50.3675 118.854 49.089 119.323C47.8106 119.783 46.3916 120.013 44.8319 120.013C42.5308 120.013 40.4768 119.48 38.67 118.415C36.8632 117.35 35.4399 115.811 34.4001 113.8C33.3604 111.789 32.8405 109.377 32.8405 106.564C32.8405 103.743 33.3646 101.331 34.4129 99.3284C35.4612 97.3171 36.8888 95.7787 38.6956 94.7134C40.5024 93.648 42.5479 93.1154 44.8319 93.1154C46.2893 93.1154 47.6444 93.3199 48.8973 93.729C50.1501 94.1381 51.2666 94.739 52.2467 95.5316C53.2268 96.3157 54.0322 97.2787 54.6629 98.4208C55.3021 99.5543 55.7197 100.85 55.9158 102.307ZM73.4078 100.671C73.2885 99.5543 72.7857 98.685 71.8993 98.0628C71.0215 97.4407 69.8794 97.1296 68.4732 97.1296C67.4845 97.1296 66.6365 97.2787 65.9291 97.577C65.2218 97.8753 64.6806 98.2801 64.3056 98.7915C63.9306 99.3029 63.7388 99.8867 63.7303 100.543C63.7303 101.088 63.8539 101.561 64.101 101.962C64.3567 102.363 64.7019 102.703 65.1365 102.985C65.5712 103.257 66.0527 103.488 66.5811 103.675C67.1095 103.863 67.6422 104.02 68.1791 104.148L70.6337 104.762C71.6223 104.992 72.5726 105.303 73.4845 105.695C74.405 106.087 75.2274 106.581 75.9519 107.178C76.6848 107.774 77.2644 108.495 77.6905 109.338C78.1166 110.182 78.3297 111.171 78.3297 112.304C78.3297 113.838 77.9377 115.189 77.1536 116.357C76.3695 117.516 75.236 118.424 73.753 119.08C72.2786 119.728 70.4931 120.051 68.3965 120.051C66.3595 120.051 64.5911 119.736 63.0911 119.105C61.5996 118.475 60.432 117.554 59.5882 116.344C58.753 115.134 58.3013 113.659 58.2331 111.921H62.8993C62.9675 112.833 63.2487 113.591 63.7431 114.196C64.2374 114.801 64.8808 115.253 65.6735 115.551C66.4746 115.85 67.3695 115.999 68.3581 115.999C69.3894 115.999 70.2928 115.845 71.0683 115.539C71.8524 115.223 72.4661 114.789 72.9093 114.235C73.3524 113.672 73.5783 113.016 73.5868 112.266C73.5783 111.584 73.378 111.022 72.986 110.578C72.5939 110.127 72.0442 109.752 71.3368 109.453C70.638 109.147 69.8198 108.874 68.8823 108.635L65.9036 107.868C63.7473 107.314 62.0428 106.475 60.7899 105.35C59.5456 104.216 58.9235 102.712 58.9235 100.837C58.9235 99.2944 59.3411 97.9435 60.1763 96.7844C61.0201 95.6253 62.1664 94.7262 63.6152 94.087C65.0641 93.4392 66.7047 93.1154 68.5371 93.1154C70.3951 93.1154 72.0229 93.4392 73.4206 94.087C74.8269 94.7262 75.9306 95.6168 76.7317 96.7588C77.5328 97.8924 77.9462 99.1963 77.9718 100.671H73.4078ZM84.9809 93.4733L91.7948 114.081H92.0633L98.8644 93.4733H104.08L94.8502 119.655H88.9951L79.7778 93.4733H84.9809Z" fill="white"/>
</g>
<defs>
<filter id="filter0_f_182_574" x="-14.2939" y="36.4675" width="169.617" height="120.545" filterUnits="userSpaceOnUse" color-interpolation-filters="sRGB">
<feFlood flood-opacity="0" result="BackgroundImageFix"/>
<feBlend mode="normal" in="SourceGraphic" in2="BackgroundImageFix" result="shape"/>
<feGaussianBlur stdDeviation="19.5" result="effect1_foregroundBlur_182_574"/>
</filter>
<filter id="filter1_d_182_574" x="64.5" y="-24" width="102.5" height="101.662" filterUnits="userSpaceOnUse" color-interpolation-filters="sRGB">
<feFlood flood-opacity="0" result="BackgroundImageFix"/>
<feColorMatrix in="SourceAlpha" type="matrix" values="0 0 0 0 0 0 0 0 0 0 0 0 0 0 0 0 0 0 127 0" result="hardAlpha"/>
<feOffset dx="2" dy="1"/>
<feGaussianBlur stdDeviation="12.5"/>
<feColorMatrix type="matrix" values="0 0 0 0 0 0 0 0 0 0 0 0 0 0 0 0 0 0 0.33 0"/>
<feBlend mode="normal" in2="BackgroundImageFix" result="effect1_dropShadow_182_574"/>
<feBlend mode="normal" in="SourceGraphic" in2="effect1_dropShadow_182_574" result="shape"/>
</filter>
<linearGradient id="paint0_linear_182_574" x1="70" y1="0" x2="70" y2="156" gradientUnits="userSpaceOnUse">
<stop stop-color="#FF7979"/>
<stop offset="1" stop-color="#E85555"/>
</linearGradient>
<linearGradient id="paint1_linear_182_574" x1="70" y1="0" x2="70" y2="156" gradientUnits="userSpaceOnUse">
<stop offset="0.000265127" stop-color="#E39898"/>
<stop offset="1" stop-color="#E12323"/>
</linearGradient>
</defs>
</svg>
